<mxfile host="app.diagrams.net" modified="2021-04-22T06:44:53.112Z" agent="5.0 (Windows NT 10.0; Win64; x64) AppleWebKit/537.36 (KHTML, like Gecko) Chrome/90.0.4430.72 Safari/537.36" etag="Qp0HHOyrihOrMLaw_6ov" version="14.4.2" type="github">
  <diagram id="mShjyojqgrw_U1VcxeZ6" name="Page-1">
    <mxGraphModel dx="939" dy="482" grid="1" gridSize="10" guides="1" tooltips="1" connect="1" arrows="1" fold="1" page="1" pageScale="1" pageWidth="850" pageHeight="1100" math="0" shadow="0">
      <root>
        <mxCell id="0" />
        <mxCell id="1" parent="0" />
        <mxCell id="n1ldv3eu3JnuRU9LPkwz-20" style="edgeStyle=orthogonalEdgeStyle;rounded=0;orthogonalLoop=1;jettySize=auto;html=1;" parent="1" source="n1ldv3eu3JnuRU9LPkwz-1" target="n1ldv3eu3JnuRU9LPkwz-5" edge="1">
          <mxGeometry relative="1" as="geometry" />
        </mxCell>
        <mxCell id="n1ldv3eu3JnuRU9LPkwz-21" style="edgeStyle=orthogonalEdgeStyle;rounded=0;orthogonalLoop=1;jettySize=auto;html=1;" parent="1" source="n1ldv3eu3JnuRU9LPkwz-1" edge="1">
          <mxGeometry relative="1" as="geometry">
            <mxPoint x="370" y="90" as="targetPoint" />
          </mxGeometry>
        </mxCell>
        <mxCell id="n1ldv3eu3JnuRU9LPkwz-22" style="edgeStyle=orthogonalEdgeStyle;rounded=0;orthogonalLoop=1;jettySize=auto;html=1;entryX=0;entryY=1;entryDx=0;entryDy=0;" parent="1" source="n1ldv3eu3JnuRU9LPkwz-1" target="n1ldv3eu3JnuRU9LPkwz-4" edge="1">
          <mxGeometry relative="1" as="geometry" />
        </mxCell>
        <mxCell id="n1ldv3eu3JnuRU9LPkwz-1" value="EU" style="ellipse;whiteSpace=wrap;html=1;aspect=fixed;" parent="1" vertex="1">
          <mxGeometry x="270" y="90" width="80" height="80" as="geometry" />
        </mxCell>
        <mxCell id="n1ldv3eu3JnuRU9LPkwz-23" style="edgeStyle=orthogonalEdgeStyle;rounded=0;orthogonalLoop=1;jettySize=auto;html=1;entryX=0;entryY=0.5;entryDx=0;entryDy=0;" parent="1" source="n1ldv3eu3JnuRU9LPkwz-2" target="n1ldv3eu3JnuRU9LPkwz-9" edge="1">
          <mxGeometry relative="1" as="geometry" />
        </mxCell>
        <mxCell id="n1ldv3eu3JnuRU9LPkwz-24" style="edgeStyle=orthogonalEdgeStyle;rounded=0;orthogonalLoop=1;jettySize=auto;html=1;entryX=0;entryY=0.25;entryDx=0;entryDy=0;" parent="1" source="n1ldv3eu3JnuRU9LPkwz-2" target="n1ldv3eu3JnuRU9LPkwz-7" edge="1">
          <mxGeometry relative="1" as="geometry">
            <Array as="points">
              <mxPoint x="435" y="310" />
              <mxPoint x="435" y="245" />
            </Array>
          </mxGeometry>
        </mxCell>
        <mxCell id="n1ldv3eu3JnuRU9LPkwz-25" style="edgeStyle=orthogonalEdgeStyle;rounded=0;orthogonalLoop=1;jettySize=auto;html=1;entryX=0.942;entryY=0;entryDx=0;entryDy=0;entryPerimeter=0;" parent="1" source="n1ldv3eu3JnuRU9LPkwz-2" target="n1ldv3eu3JnuRU9LPkwz-8" edge="1">
          <mxGeometry relative="1" as="geometry" />
        </mxCell>
        <mxCell id="n1ldv3eu3JnuRU9LPkwz-2" value="SEA" style="ellipse;whiteSpace=wrap;html=1;aspect=fixed;" parent="1" vertex="1">
          <mxGeometry x="290" y="270" width="80" height="80" as="geometry" />
        </mxCell>
        <mxCell id="n1ldv3eu3JnuRU9LPkwz-4" value="" style="shape=process;whiteSpace=wrap;html=1;backgroundOutline=1;" parent="1" vertex="1">
          <mxGeometry x="480" y="30" width="120" height="60" as="geometry" />
        </mxCell>
        <mxCell id="n1ldv3eu3JnuRU9LPkwz-5" value="" style="shape=process;whiteSpace=wrap;html=1;backgroundOutline=1;" parent="1" vertex="1">
          <mxGeometry x="480" y="120" width="120" height="60" as="geometry" />
        </mxCell>
        <mxCell id="n1ldv3eu3JnuRU9LPkwz-6" value="" style="shape=process;whiteSpace=wrap;html=1;backgroundOutline=1;" parent="1" vertex="1">
          <mxGeometry x="340" y="20" width="120" height="60" as="geometry" />
        </mxCell>
        <mxCell id="n1ldv3eu3JnuRU9LPkwz-7" value="" style="shape=process;whiteSpace=wrap;html=1;backgroundOutline=1;" parent="1" vertex="1">
          <mxGeometry x="500" y="230" width="120" height="60" as="geometry" />
        </mxCell>
        <mxCell id="n1ldv3eu3JnuRU9LPkwz-8" value="" style="shape=process;whiteSpace=wrap;html=1;backgroundOutline=1;" parent="1" vertex="1">
          <mxGeometry x="510" y="340" width="120" height="60" as="geometry" />
        </mxCell>
        <mxCell id="n1ldv3eu3JnuRU9LPkwz-9" value="" style="shape=process;whiteSpace=wrap;html=1;backgroundOutline=1;" parent="1" vertex="1">
          <mxGeometry x="360" y="350" width="120" height="60" as="geometry" />
        </mxCell>
        <mxCell id="n1ldv3eu3JnuRU9LPkwz-14" value="EMP&lt;br&gt;EU1" style="triangle;whiteSpace=wrap;html=1;" parent="1" vertex="1">
          <mxGeometry x="380" y="20" width="60" height="80" as="geometry" />
        </mxCell>
        <mxCell id="n1ldv3eu3JnuRU9LPkwz-15" value="&lt;span&gt;EMP&lt;/span&gt;&lt;br&gt;&lt;span&gt;EU2&lt;/span&gt;" style="triangle;whiteSpace=wrap;html=1;" parent="1" vertex="1">
          <mxGeometry x="510" y="30" width="60" height="80" as="geometry" />
        </mxCell>
        <mxCell id="n1ldv3eu3JnuRU9LPkwz-16" value="&lt;span&gt;EMP&lt;/span&gt;&lt;br&gt;&lt;span&gt;EU3&lt;/span&gt;" style="triangle;whiteSpace=wrap;html=1;" parent="1" vertex="1">
          <mxGeometry x="520" y="120" width="60" height="80" as="geometry" />
        </mxCell>
        <mxCell id="n1ldv3eu3JnuRU9LPkwz-17" value="EMP&lt;br&gt;&lt;span&gt;SEA1&lt;/span&gt;" style="triangle;whiteSpace=wrap;html=1;" parent="1" vertex="1">
          <mxGeometry x="540" y="210" width="60" height="80" as="geometry" />
        </mxCell>
        <mxCell id="n1ldv3eu3JnuRU9LPkwz-18" value="&lt;span&gt;EMP&lt;/span&gt;&lt;br&gt;&lt;span&gt;SEA2&lt;/span&gt;" style="triangle;whiteSpace=wrap;html=1;" parent="1" vertex="1">
          <mxGeometry x="550" y="330" width="60" height="80" as="geometry" />
        </mxCell>
        <mxCell id="n1ldv3eu3JnuRU9LPkwz-19" value="&lt;span&gt;EMP&lt;/span&gt;&lt;br&gt;&lt;span&gt;SEA3&lt;/span&gt;" style="triangle;whiteSpace=wrap;html=1;" parent="1" vertex="1">
          <mxGeometry x="390" y="340" width="60" height="80" as="geometry" />
        </mxCell>
        <mxCell id="n1ldv3eu3JnuRU9LPkwz-29" style="edgeStyle=orthogonalEdgeStyle;rounded=0;orthogonalLoop=1;jettySize=auto;html=1;entryX=0.025;entryY=0.413;entryDx=0;entryDy=0;entryPerimeter=0;" parent="1" source="n1ldv3eu3JnuRU9LPkwz-27" target="n1ldv3eu3JnuRU9LPkwz-1" edge="1">
          <mxGeometry relative="1" as="geometry" />
        </mxCell>
        <mxCell id="n1ldv3eu3JnuRU9LPkwz-30" style="edgeStyle=orthogonalEdgeStyle;rounded=0;orthogonalLoop=1;jettySize=auto;html=1;entryX=0;entryY=0.5;entryDx=0;entryDy=0;" parent="1" source="n1ldv3eu3JnuRU9LPkwz-27" target="n1ldv3eu3JnuRU9LPkwz-2" edge="1">
          <mxGeometry relative="1" as="geometry" />
        </mxCell>
        <mxCell id="n1ldv3eu3JnuRU9LPkwz-27" value="MongoS" style="shape=cylinder3;whiteSpace=wrap;html=1;boundedLbl=1;backgroundOutline=1;size=15;" parent="1" vertex="1">
          <mxGeometry x="140" y="160" width="60" height="80" as="geometry" />
        </mxCell>
        <mxCell id="n1ldv3eu3JnuRU9LPkwz-31" value="Replica Set1" style="text;html=1;strokeColor=none;fillColor=none;align=center;verticalAlign=middle;whiteSpace=wrap;rounded=0;" parent="1" vertex="1">
          <mxGeometry x="300" width="180" height="20" as="geometry" />
        </mxCell>
        <mxCell id="n1ldv3eu3JnuRU9LPkwz-32" value="Replica Set2" style="text;html=1;strokeColor=none;fillColor=none;align=center;verticalAlign=middle;whiteSpace=wrap;rounded=0;" parent="1" vertex="1">
          <mxGeometry x="510" y="10" width="90" height="20" as="geometry" />
        </mxCell>
        <mxCell id="n1ldv3eu3JnuRU9LPkwz-33" value="Replica Set3" style="text;html=1;strokeColor=none;fillColor=none;align=center;verticalAlign=middle;whiteSpace=wrap;rounded=0;" parent="1" vertex="1">
          <mxGeometry x="510" y="100" width="100" height="20" as="geometry" />
        </mxCell>
        <mxCell id="n1ldv3eu3JnuRU9LPkwz-34" value="Shard 1" style="text;html=1;strokeColor=none;fillColor=none;align=center;verticalAlign=middle;whiteSpace=wrap;rounded=0;" parent="1" vertex="1">
          <mxGeometry x="265" y="170" width="90" height="20" as="geometry" />
        </mxCell>
        <mxCell id="n1ldv3eu3JnuRU9LPkwz-35" value="Shard 0" style="text;html=1;strokeColor=none;fillColor=none;align=center;verticalAlign=middle;whiteSpace=wrap;rounded=0;" parent="1" vertex="1">
          <mxGeometry x="290" y="250" width="60" height="20" as="geometry" />
        </mxCell>
        <mxCell id="n1ldv3eu3JnuRU9LPkwz-38" style="edgeStyle=orthogonalEdgeStyle;rounded=0;orthogonalLoop=1;jettySize=auto;html=1;entryX=0;entryY=0.5;entryDx=0;entryDy=0;entryPerimeter=0;" parent="1" source="n1ldv3eu3JnuRU9LPkwz-37" target="n1ldv3eu3JnuRU9LPkwz-27" edge="1">
          <mxGeometry relative="1" as="geometry" />
        </mxCell>
        <mxCell id="n1ldv3eu3JnuRU9LPkwz-37" value="CRUD QUERY" style="text;html=1;strokeColor=none;fillColor=none;align=center;verticalAlign=middle;whiteSpace=wrap;rounded=0;" parent="1" vertex="1">
          <mxGeometry y="190" width="90" height="20" as="geometry" />
        </mxCell>
      </root>
    </mxGraphModel>
  </diagram>
</mxfile>
